<svg width="512" height="512" viewBox="0 0 512 512" fill="none" xmlns="http://www.w3.org/2000/svg">
	<g clip-path="url(#clip0)">
		<path d="M20.309 334.036C63.412 464.205 203.879 534.787 334.049 491.683C464.219 448.58 534.8 308.113 491.696 177.943C448.592 47.773 308.126 -22.807 177.956 20.296C47.787 63.401 -22.795 203.867 20.309 334.036ZM204.447 335.488C186.981 324.178 173.106 307.065 166.057 285.773C149.607 236.097 176.542 182.493 226.219 166.043C275.896 149.594 329.5 176.53 345.949 226.206C362.399 275.882 335.463 329.487 285.787 345.936C264.333 353.04 242.146 352.052 222.535 344.634" fill="#FCB669"/>
		<path d="M256.003 7.711C118.882 7.711 7.724 118.869 7.724 255.99V270.442C7.724 284.58 19.184 296.04 33.321 296.04C47.458 296.04 58.918 284.58 58.918 270.442V255.99V250.949C58.918 236.811 70.378 225.351 84.515 225.351C98.652 225.351 110.113 236.811 110.113 250.949V255.99V310.979C110.113 325.117 121.573 336.577 135.71 336.577C149.847 336.577 161.308 325.117 161.308 310.979V252.9C162.94 202.002 204.708 161.24 256.002 161.24C307.296 161.24 349.064 202.001 350.696 252.9V310.979C350.696 325.117 362.156 336.577 376.294 336.577C390.432 336.577 401.891 325.117 401.891 310.979V255.99V250.949C401.891 236.811 413.351 225.351 427.489 225.351C441.627 225.351 453.086 236.811 453.086 250.949V255.99V270.442C453.086 284.58 464.546 296.04 478.683 296.04C492.82 296.04 504.28 284.58 504.28 270.442V255.99C504.282 118.869 393.123 7.711 256.003 7.711Z" fill="#FF5598"/>
		<path d="M174 490L284 507.346C292.589 502.827 323.299 500.467 331.5 495.415C435 452 543 304.5 485.377 294.086L467.5 294.086C434.251 385.065 356 490 174 490Z" fill="#491E17" fill-opacity="0.14"/>
		<path d="M511.882 263.852C512.368 247.703 511.302 231.482 508.678 215.374C503.351 181.776 491.429 149.847 473.547 121.125C456.026 92.745 433.13 68.156 405.901 48.567C378.608 28.754 347.891 14.688 315.25 6.98599C282.44 -0.88701 248.471 -2.12801 214.991 3.37899C181.858 8.68499 150.357 20.409 121.961 37.937C93.174 55.558 68.258 78.691 48.46 106.255C28.843 133.322 14.872 163.751 7.15199 196.08C1.78799 218.176 -0.570006 240.802 0.120994 263.456V270.443C0.120994 273.023 0.425994 275.531 0.985994 277.942C2.71599 297.609 6.72999 317.214 13.092 336.426C34.577 401.309 80.042 453.942 141.114 484.629C177.301 502.812 216.396 512 255.749 511.999C282.81 511.999 309.997 507.653 336.436 498.898C401.319 477.413 453.952 431.948 484.639 370.875C499.517 341.267 508.353 309.708 511.081 277.658C511.599 275.333 511.881 272.92 511.881 270.442V263.851H511.882V263.852ZM427.49 217.751C409.184 217.751 394.292 232.644 394.292 250.949V310.979C394.292 320.903 386.218 328.977 376.295 328.977C366.371 328.977 358.297 320.903 358.297 310.979V260.669C358.64 253.118 358.132 245.522 356.772 237.996C356.715 237.677 356.652 237.359 356.593 237.04C356.526 236.686 356.462 236.333 356.391 235.98C354.262 225.208 350.423 214.912 345.023 205.429C344.966 205.329 344.907 205.231 344.851 205.131C344.165 203.935 343.459 202.75 342.723 201.581C342.392 201.051 342.049 200.53 341.708 200.007C341.432 199.586 341.151 199.168 340.868 198.75C334.668 189.528 327.008 181.394 318.112 174.632C317.221 173.95 316.319 173.284 315.409 172.634C315.162 172.459 314.916 172.283 314.666 172.11C304.731 165.137 293.699 160.031 282.027 156.979C267.896 153.234 253.176 152.581 238.703 155.095C238.702 155.095 238.701 155.095 238.7 155.096C238.515 155.128 238.329 155.164 238.144 155.197C226.653 157.214 215.659 161.172 205.565 166.905C205.406 166.994 205.248 167.085 205.089 167.177C203.995 167.806 202.91 168.456 201.837 169.127C201.292 169.465 200.751 169.81 200.213 170.159C200.212 170.161 200.21 170.162 200.208 170.162C190.447 176.483 181.864 184.423 174.775 193.708C174.058 194.64 173.363 195.587 172.68 196.539C172.524 196.759 172.363 196.977 172.209 197.198C165.481 206.754 160.474 217.345 157.369 228.566C154.445 238.997 153.219 249.765 153.714 260.532L153.711 310.98C153.711 320.904 145.637 328.978 135.713 328.978C125.79 328.978 117.716 320.904 117.716 310.98V250.95C117.716 232.644 102.823 217.752 84.518 217.752C66.213 217.752 51.321 232.645 51.321 250.95V270.442C51.321 280.366 43.247 288.44 33.324 288.44C25.111 288.44 18.179 282.903 16.03 275.369C15.69 271.252 15.453 267.132 15.328 263.014V255.99C15.328 236.864 17.561 218.085 21.871 199.934C26.169 182.135 32.525 164.698 40.951 147.929C46.778 136.334 53.458 125.349 60.892 115.013C68.354 104.733 76.665 94.96 85.821 85.803C99.312 72.313 114.13 60.637 129.968 50.865C145.626 41.284 162.489 33.426 180.349 27.512C192.24 23.575 204.289 20.597 216.41 18.549C217.705 18.336 218.999 18.117 220.299 17.926C220.311 17.925 220.324 17.923 220.337 17.921C232.043 16.192 243.957 15.313 256.006 15.313C273.675 15.313 291.051 17.215 307.908 20.903C308.61 21.059 309.314 21.209 310.015 21.371C310.806 21.552 311.595 21.744 312.384 21.932C330.073 26.229 347.4 32.561 364.067 40.935C375.668 46.764 386.658 53.449 396.998 60.886C407.273 68.345 417.041 76.652 426.193 85.804C439.458 99.069 450.97 113.618 460.643 129.159C470.444 145.04 478.471 162.171 484.486 180.333C488.563 192.645 491.605 205.131 493.656 217.687C495.652 230.239 496.686 243.034 496.686 255.99V263.386C496.567 267.316 496.351 271.241 496.037 275.158C493.957 282.798 486.978 288.438 478.688 288.438C468.764 288.438 460.691 280.364 460.691 270.44V250.948C460.687 232.644 445.794 217.751 427.49 217.751ZM471.058 364.051C442.194 421.495 392.688 464.259 331.659 484.468C270.63 504.677 205.384 499.91 147.942 471.046C90.498 442.181 47.733 392.675 27.524 331.647C24.13 321.399 21.458 311.03 19.469 300.6C23.689 302.546 28.379 303.64 33.321 303.64C51.626 303.64 66.518 288.747 66.518 270.442V250.95C66.518 241.026 74.592 232.952 84.515 232.952C94.439 232.952 102.513 241.026 102.513 250.95V310.98C102.513 329.286 117.406 344.178 135.71 344.178C154.016 344.178 168.908 329.286 168.908 310.98V309.684C176.84 322.537 187.551 333.604 200.315 341.869L208.577 329.11C191.782 318.234 179.573 302.424 173.271 283.386C170.681 275.564 169.247 267.55 168.908 259.537V253.026C169.141 246.045 170.201 239.205 172.025 232.62C173.534 227.241 175.566 221.966 178.13 216.863C180.038 213.065 182.202 209.45 184.588 206.024C187.734 201.544 191.318 197.328 195.325 193.439C200.167 188.74 205.476 184.683 211.128 181.277C211.564 181.016 211.993 180.747 212.434 180.494C212.919 180.213 213.414 179.951 213.904 179.68C214.766 179.207 215.629 178.732 216.509 178.288C216.645 178.219 216.783 178.154 216.918 178.086C220.661 176.217 224.561 174.6 228.604 173.26C231.257 172.381 233.933 171.641 236.623 171.022C236.914 170.956 237.205 170.893 237.496 170.83C238.431 170.624 239.369 170.441 240.306 170.267C241.026 170.136 241.747 170.012 242.472 169.899C242.962 169.821 243.454 169.748 243.944 169.679C245.097 169.52 246.252 169.373 247.416 169.259C247.478 169.253 247.541 169.247 247.602 169.241C250.378 168.975 253.179 168.841 256 168.841C261.601 168.841 267.126 169.375 272.519 170.407C272.735 170.45 272.952 170.492 273.169 170.536C274.171 170.736 275.166 170.959 276.16 171.193C276.755 171.336 277.349 171.484 277.942 171.639C278.559 171.799 279.174 171.965 279.786 172.139C280.759 172.418 281.729 172.708 282.692 173.021C282.94 173.101 283.188 173.179 283.435 173.261C287.409 174.589 291.317 176.204 295.128 178.119C297.612 179.366 300.015 180.728 302.342 182.185C302.499 182.284 302.659 182.378 302.816 182.479C303.583 182.965 304.328 183.477 305.078 183.986C305.625 184.36 306.178 184.725 306.717 185.112C307.006 185.318 307.284 185.535 307.57 185.743C310.75 188.086 313.798 190.645 316.677 193.439C321.756 198.368 326.163 203.819 329.847 209.673C329.951 209.84 330.048 210.011 330.151 210.18C330.733 211.119 331.301 212.067 331.846 213.027C334.611 217.93 336.921 223.136 338.73 228.598C339.641 231.348 340.411 234.124 341.043 236.914C341.078 237.074 341.107 237.235 341.141 237.395C341.385 238.504 341.608 239.613 341.809 240.727C342.519 244.762 342.955 248.87 343.094 253.027V259.67C342.584 271.853 339.51 283.899 333.871 295.121C323.42 315.921 305.493 331.406 283.395 338.724C264.478 344.988 243.818 344.563 225.221 337.528L219.843 351.746C231.434 356.131 243.704 358.33 255.99 358.33C266.861 358.33 277.743 356.607 288.172 353.155C311.284 345.502 330.492 330.227 343.092 309.726V310.983C343.092 329.289 357.985 344.181 376.29 344.181C394.596 344.181 409.487 329.289 409.487 310.983V250.953C409.487 241.029 417.561 232.955 427.485 232.955C437.408 232.955 445.482 241.029 445.482 250.953V270.445C445.482 288.751 460.375 303.643 478.679 303.643C483.652 303.643 488.368 302.536 492.607 300.569C488.475 322.35 481.288 343.692 471.058 364.051Z" fill="#491E17"/>
		<path d="M242.304 455.563L241.272 470.729C246.228 471.065 251.169 471.233 256.099 471.233C304.494 471.233 351.323 455.111 389.33 425.103L379.911 413.173C340.999 443.895 292.125 458.955 242.304 455.563Z" fill="#491E17"/>
		<path d="M217.854 53.7646L214.374 38.9673C209.539 40.1057 204.767 41.4003 200.056 42.8522C153.807 57.1048 113.803 86.3031 86.3192 126.173L98.8339 134.8C126.972 93.9812 169.244 65.1955 217.854 53.7646Z" fill="#491E17"/>
	</g>
	<defs>
		<clipPath id="clip0">
			<rect width="512" height="512" fill="white"/>
		</clipPath>
	</defs>
</svg>
